<?xml version="1.0" encoding="UTF-8" standalone="no"?>
<!DOCTYPE svg PUBLIC "-//W3C//DTD SVG 1.1//EN"
 "http://www.w3.org/Graphics/SVG/1.1/DTD/svg11.dtd">
<!-- Generated by graphviz version 2.43.0 (0)
 -->
<!-- Title: G Pages: 1 -->
<svg width="729pt" height="130pt"
 viewBox="0.00 0.00 729.00 130.00" xmlns="http://www.w3.org/2000/svg" xmlns:xlink="http://www.w3.org/1999/xlink">
<g id="graph0" class="graph" transform="scale(1 1) rotate(0) translate(4 126)">
<title>G</title>
<polygon fill="white" stroke="transparent" points="-4,4 -4,-126 725,-126 725,4 -4,4"/>
<text text-anchor="middle" x="360.5" y="-7.8" font-family="Times,serif" font-size="14.00">`ab?c+d*e`</text>
<!-- 0 -->
<g id="node1" class="node">
<title>0</title>
<ellipse fill="none" stroke="black" cx="27" cy="-70" rx="27" ry="18"/>
<text text-anchor="middle" x="27" y="-66.3" font-family="Times,serif" font-size="14.00">s0</text>
</g>
<!-- 2 -->
<g id="node2" class="node">
<title>2</title>
<ellipse fill="none" stroke="black" cx="124" cy="-70" rx="27" ry="18"/>
<text text-anchor="middle" x="124" y="-66.3" font-family="Times,serif" font-size="14.00">s2</text>
</g>
<!-- 0&#45;&gt;2 -->
<g id="edge1" class="edge">
<title>0&#45;&gt;2</title>
<path fill="none" stroke="black" d="M54.21,-70C64.28,-70 75.96,-70 86.81,-70"/>
<polygon fill="black" stroke="black" points="86.87,-73.5 96.87,-70 86.87,-66.5 86.87,-73.5"/>
<text text-anchor="middle" x="75.5" y="-73.8" font-family="Times,serif" font-size="14.00">a</text>
</g>
<!-- 1 -->
<g id="node3" class="node">
<title>1</title>
<ellipse fill="none" stroke="black" cx="215" cy="-104" rx="27" ry="18"/>
<text text-anchor="middle" x="215" y="-100.3" font-family="Times,serif" font-size="14.00">s1</text>
</g>
<!-- 2&#45;&gt;1 -->
<g id="edge3" class="edge">
<title>2&#45;&gt;1</title>
<path fill="none" stroke="black" d="M147.92,-78.76C158.2,-82.68 170.5,-87.38 181.69,-91.66"/>
<polygon fill="black" stroke="black" points="180.57,-94.97 191.16,-95.27 183.07,-88.44 180.57,-94.97"/>
</g>
<!-- 3 -->
<g id="node4" class="node">
<title>3</title>
<ellipse fill="none" stroke="black" cx="312" cy="-74" rx="27" ry="18"/>
<text text-anchor="middle" x="312" y="-70.3" font-family="Times,serif" font-size="14.00">s3</text>
</g>
<!-- 2&#45;&gt;3 -->
<g id="edge4" class="edge">
<title>2&#45;&gt;3</title>
<path fill="none" stroke="black" d="M151.25,-70.56C183.52,-71.26 238.44,-72.44 274.72,-73.22"/>
<polygon fill="black" stroke="black" points="274.81,-76.72 284.88,-73.44 274.96,-69.72 274.81,-76.72"/>
</g>
<!-- 1&#45;&gt;3 -->
<g id="edge2" class="edge">
<title>1&#45;&gt;3</title>
<path fill="none" stroke="black" d="M239.97,-96.43C251.42,-92.81 265.31,-88.43 277.76,-84.5"/>
<polygon fill="black" stroke="black" points="278.88,-87.81 287.36,-81.46 276.77,-81.14 278.88,-87.81"/>
<text text-anchor="middle" x="263.5" y="-92.8" font-family="Times,serif" font-size="14.00">b</text>
</g>
<!-- 4 -->
<g id="node5" class="node">
<title>4</title>
<ellipse fill="none" stroke="black" cx="409" cy="-74" rx="27" ry="18"/>
<text text-anchor="middle" x="409" y="-70.3" font-family="Times,serif" font-size="14.00">s4</text>
</g>
<!-- 3&#45;&gt;4 -->
<g id="edge5" class="edge">
<title>3&#45;&gt;4</title>
<path fill="none" stroke="black" d="M339.21,-74C349.28,-74 360.96,-74 371.81,-74"/>
<polygon fill="black" stroke="black" points="371.87,-77.5 381.87,-74 371.87,-70.5 371.87,-77.5"/>
<text text-anchor="middle" x="360.5" y="-77.8" font-family="Times,serif" font-size="14.00">c</text>
</g>
<!-- 4&#45;&gt;3 -->
<g id="edge6" class="edge">
<title>4&#45;&gt;3</title>
<path fill="none" stroke="black" d="M382.06,-72.36C374.03,-72.02 365.15,-71.81 357,-72 354.46,-72.06 351.83,-72.13 349.19,-72.22"/>
<polygon fill="black" stroke="black" points="348.91,-68.73 339.05,-72.62 349.18,-75.73 348.91,-68.73"/>
</g>
<!-- 6 -->
<g id="node6" class="node">
<title>6</title>
<ellipse fill="none" stroke="black" cx="500" cy="-74" rx="27" ry="18"/>
<text text-anchor="middle" x="500" y="-70.3" font-family="Times,serif" font-size="14.00">s6</text>
</g>
<!-- 4&#45;&gt;6 -->
<g id="edge7" class="edge">
<title>4&#45;&gt;6</title>
<path fill="none" stroke="black" d="M436.22,-74C444.55,-74 453.91,-74 462.82,-74"/>
<polygon fill="black" stroke="black" points="462.97,-77.5 472.97,-74 462.97,-70.5 462.97,-77.5"/>
</g>
<!-- 5 -->
<g id="node7" class="node">
<title>5</title>
<ellipse fill="none" stroke="black" cx="597" cy="-99" rx="27" ry="18"/>
<text text-anchor="middle" x="597" y="-95.3" font-family="Times,serif" font-size="14.00">s5</text>
</g>
<!-- 6&#45;&gt;5 -->
<g id="edge9" class="edge">
<title>6&#45;&gt;5</title>
<path fill="none" stroke="black" d="M523.6,-83.07C530.4,-85.57 537.93,-88.11 545,-90 549.97,-91.33 555.28,-92.52 560.51,-93.56"/>
<polygon fill="black" stroke="black" points="559.92,-97.01 570.39,-95.38 561.18,-90.12 559.92,-97.01"/>
</g>
<!-- 7 -->
<g id="node8" class="node">
<title>7</title>
<ellipse fill="none" stroke="black" cx="597" cy="-41" rx="27" ry="18"/>
<text text-anchor="middle" x="597" y="-37.3" font-family="Times,serif" font-size="14.00">s7</text>
</g>
<!-- 6&#45;&gt;7 -->
<g id="edge10" class="edge">
<title>6&#45;&gt;7</title>
<path fill="none" stroke="black" d="M524.48,-65.84C536.1,-61.81 550.32,-56.87 563.02,-52.46"/>
<polygon fill="black" stroke="black" points="564.49,-55.65 572.79,-49.06 562.19,-49.04 564.49,-55.65"/>
</g>
<!-- 5&#45;&gt;6 -->
<g id="edge8" class="edge">
<title>5&#45;&gt;6</title>
<path fill="none" stroke="black" d="M577.57,-86.37C569.99,-81.89 560.91,-77.37 552,-75 547.27,-73.75 542.21,-72.99 537.18,-72.57"/>
<polygon fill="black" stroke="black" points="537.16,-69.06 527.02,-72.13 536.86,-76.05 537.16,-69.06"/>
<text text-anchor="middle" x="548.5" y="-78.8" font-family="Times,serif" font-size="14.00">d</text>
</g>
<!-- 8 -->
<g id="node9" class="node">
<title>8</title>
<ellipse fill="none" stroke="black" cx="694" cy="-41" rx="27" ry="18"/>
<text text-anchor="middle" x="694" y="-37.3" font-family="Times,serif" font-size="14.00">s8</text>
</g>
<!-- 7&#45;&gt;8 -->
<g id="edge11" class="edge">
<title>7&#45;&gt;8</title>
<path fill="none" stroke="black" d="M624.21,-41C634.28,-41 645.96,-41 656.81,-41"/>
<polygon fill="black" stroke="black" points="656.87,-44.5 666.87,-41 656.87,-37.5 656.87,-44.5"/>
<text text-anchor="middle" x="645.5" y="-44.8" font-family="Times,serif" font-size="14.00">e</text>
</g>
</g>
</svg>
