<?xml version="1.0" encoding="UTF-8" standalone="no"?>
<!DOCTYPE svg PUBLIC "-//W3C//DTD SVG 1.1//EN"
 "http://www.w3.org/Graphics/SVG/1.1/DTD/svg11.dtd">
<!-- Generated by graphviz version 2.43.0 (0)
 -->
<!-- Title: G Pages: 1 -->
<svg width="134pt" height="218pt"
 viewBox="0.00 0.00 134.00 218.00" xmlns="http://www.w3.org/2000/svg" xmlns:xlink="http://www.w3.org/1999/xlink">
<g id="graph0" class="graph" transform="scale(1 1) rotate(0) translate(4 214)">
<title>G</title>
<polygon fill="white" stroke="transparent" points="-4,4 -4,-214 130,-214 130,4 -4,4"/>
<!-- 0 -->
<g id="node1" class="node">
<title>0</title>
<ellipse fill="none" stroke="black" cx="60" cy="-192" rx="27" ry="18"/>
<text text-anchor="middle" x="60" y="-188.3" font-family="Times,serif" font-size="14.00">s0</text>
</g>
<!-- 1 -->
<g id="node2" class="node">
<title>1</title>
<ellipse fill="none" stroke="black" cx="27" cy="-105" rx="27" ry="18"/>
<text text-anchor="middle" x="27" y="-101.3" font-family="Times,serif" font-size="14.00">s1</text>
</g>
<!-- 0&#45;&gt;1 -->
<g id="edge1" class="edge">
<title>0&#45;&gt;1</title>
<path fill="none" stroke="black" d="M50.33,-174.99C47.07,-169.15 43.6,-162.41 41,-156 38.02,-148.65 35.43,-140.44 33.32,-132.84"/>
<polygon fill="black" stroke="black" points="36.66,-131.77 30.75,-122.98 29.89,-133.54 36.66,-131.77"/>
</g>
<!-- 2 -->
<g id="node3" class="node">
<title>2</title>
<ellipse fill="none" stroke="black" cx="99" cy="-105" rx="27" ry="18"/>
<text text-anchor="middle" x="99" y="-101.3" font-family="Times,serif" font-size="14.00">s2</text>
</g>
<!-- 0&#45;&gt;2 -->
<g id="edge2" class="edge">
<title>0&#45;&gt;2</title>
<path fill="none" stroke="black" d="M67.52,-174.61C73.13,-162.38 80.9,-145.44 87.32,-131.46"/>
<polygon fill="black" stroke="black" points="90.51,-132.89 91.5,-122.34 84.15,-129.97 90.51,-132.89"/>
</g>
<!-- 1&#45;&gt;0 -->
<g id="edge3" class="edge">
<title>1&#45;&gt;0</title>
<path fill="none" stroke="black" d="M33.51,-122.76C38.16,-134.74 44.51,-151.1 49.83,-164.8"/>
<polygon fill="black" stroke="black" points="46.6,-166.15 53.48,-174.21 53.12,-163.62 46.6,-166.15"/>
<text text-anchor="middle" x="48.5" y="-144.8" font-family="Times,serif" font-size="14.00">a</text>
</g>
<!-- 3 -->
<g id="node4" class="node">
<title>3</title>
<ellipse fill="none" stroke="black" cx="99" cy="-18" rx="27" ry="18"/>
<text text-anchor="middle" x="99" y="-14.3" font-family="Times,serif" font-size="14.00">s3</text>
</g>
<!-- 2&#45;&gt;3 -->
<g id="edge4" class="edge">
<title>2&#45;&gt;3</title>
<path fill="none" stroke="black" d="M99,-86.8C99,-75.16 99,-59.55 99,-46.24"/>
<polygon fill="black" stroke="black" points="102.5,-46.18 99,-36.18 95.5,-46.18 102.5,-46.18"/>
<text text-anchor="middle" x="102.5" y="-57.8" font-family="Times,serif" font-size="14.00">b</text>
</g>
</g>
</svg>
