<?xml version="1.0" encoding="UTF-8" standalone="no"?>
<!DOCTYPE svg PUBLIC "-//W3C//DTD SVG 1.1//EN"
 "http://www.w3.org/Graphics/SVG/1.1/DTD/svg11.dtd">
<!-- Generated by graphviz version 2.43.0 (0)
 -->
<!-- Title: G Pages: 1 -->
<svg width="286pt" height="332pt"
 viewBox="0.00 0.00 286.35 332.00" xmlns="http://www.w3.org/2000/svg" xmlns:xlink="http://www.w3.org/1999/xlink">
<g id="graph0" class="graph" transform="scale(1 1) rotate(0) translate(4 328)">
<title>G</title>
<polygon fill="white" stroke="transparent" points="-4,4 -4,-328 282.35,-328 282.35,4 -4,4"/>
<!-- 0 -->
<g id="node1" class="node">
<title>0</title>
<ellipse fill="none" stroke="black" cx="128" cy="-162" rx="27" ry="18"/>
<text text-anchor="middle" x="128" y="-158.3" font-family="Times,serif" font-size="14.00">int</text>
</g>
<!-- 1 -->
<g id="node2" class="node">
<title>1</title>
<ellipse fill="none" stroke="black" cx="128" cy="-90" rx="30.59" ry="18"/>
<text text-anchor="middle" x="128" y="-86.3" font-family="Times,serif" font-size="14.00">enum</text>
</g>
<!-- 0&#45;&gt;1 -->
<g id="edge1" class="edge">
<title>0&#45;&gt;1</title>
<path fill="none" stroke="black" d="M128,-143.7C128,-135.98 128,-126.71 128,-118.11"/>
<polygon fill="black" stroke="black" points="131.5,-118.1 128,-108.1 124.5,-118.1 131.5,-118.1"/>
</g>
<!-- 2 -->
<g id="node3" class="node">
<title>2</title>
<ellipse fill="none" stroke="black" cx="27" cy="-18" rx="27" ry="18"/>
<text text-anchor="middle" x="27" y="-14.3" font-family="Times,serif" font-size="14.00">bool</text>
</g>
<!-- 1&#45;&gt;2 -->
<g id="edge2" class="edge">
<title>1&#45;&gt;2</title>
<path fill="none" stroke="black" d="M109,-75.83C93.43,-65.04 71.21,-49.64 53.82,-37.59"/>
<polygon fill="black" stroke="black" points="55.44,-34.46 45.23,-31.64 51.46,-40.21 55.44,-34.46"/>
</g>
<!-- 3 -->
<g id="node4" class="node">
<title>3</title>
<ellipse fill="none" stroke="black" cx="128" cy="-18" rx="55.79" ry="18"/>
<text text-anchor="middle" x="128" y="-14.3" font-family="Times,serif" font-size="14.00">logger.levels</text>
</g>
<!-- 1&#45;&gt;3 -->
<g id="edge3" class="edge">
<title>1&#45;&gt;3</title>
<path fill="none" stroke="black" d="M128,-71.7C128,-63.98 128,-54.71 128,-46.11"/>
<polygon fill="black" stroke="black" points="131.5,-46.1 128,-36.1 124.5,-46.1 131.5,-46.1"/>
</g>
<!-- 4 -->
<g id="node5" class="node">
<title>4</title>
<ellipse fill="none" stroke="black" cx="240" cy="-18" rx="38.19" ry="18"/>
<text text-anchor="middle" x="240" y="-14.3" font-family="Times,serif" font-size="14.00">ast.kind</text>
</g>
<!-- 1&#45;&gt;4 -->
<g id="edge4" class="edge">
<title>1&#45;&gt;4</title>
<path fill="none" stroke="black" d="M148.28,-76.32C165.34,-65.66 189.98,-50.26 209.43,-38.11"/>
<polygon fill="black" stroke="black" points="211.33,-41.05 217.95,-32.78 207.62,-35.11 211.33,-41.05"/>
</g>
<!-- 5 -->
<g id="node6" class="node">
<title>5</title>
<ellipse fill="none" stroke="black" cx="128" cy="-234" rx="38.19" ry="18"/>
<text text-anchor="middle" x="128" y="-230.3" font-family="Times,serif" font-size="14.00">number</text>
</g>
<!-- 5&#45;&gt;0 -->
<g id="edge5" class="edge">
<title>5&#45;&gt;0</title>
<path fill="none" stroke="black" d="M128,-215.7C128,-207.98 128,-198.71 128,-190.11"/>
<polygon fill="black" stroke="black" points="131.5,-190.1 128,-180.1 124.5,-190.1 131.5,-190.1"/>
</g>
<!-- 6 -->
<g id="node7" class="node">
<title>6</title>
<ellipse fill="none" stroke="black" cx="128" cy="-306" rx="32.49" ry="18"/>
<text text-anchor="middle" x="128" y="-302.3" font-family="Times,serif" font-size="14.00">object</text>
</g>
<!-- 6&#45;&gt;5 -->
<g id="edge6" class="edge">
<title>6&#45;&gt;5</title>
<path fill="none" stroke="black" d="M128,-287.7C128,-279.98 128,-270.71 128,-262.11"/>
<polygon fill="black" stroke="black" points="131.5,-262.1 128,-252.1 124.5,-262.1 131.5,-262.1"/>
</g>
</g>
</svg>
